<?xml version="1.0" encoding="UTF-8"?>
<!DOCTYPE svg PUBLIC "-//W3C//DTD SVG 1.1//EN" "http://www.w3.org/Graphics/SVG/1.1/DTD/svg11.dtd">
<!-- Creator: CorelDRAW 2021 (64 Bit) -->
<svg xmlns="http://www.w3.org/2000/svg" xml:space="preserve" width="120mm" height="50mm" version="1.1" style="shape-rendering:geometricPrecision; text-rendering:geometricPrecision; image-rendering:optimizeQuality; fill-rule:evenodd; clip-rule:evenodd"
viewBox="0 0 12000 5000"
 xmlns:xlink="http://www.w3.org/1999/xlink"
 xmlns:xodm="http://www.corel.com/coreldraw/odm/2003">
 <defs>
  <style type="text/css">
   <![CDATA[
    .str1 {stroke:#8960FF;stroke-width:7.62;stroke-miterlimit:22.9256}
    .str0 {stroke:#8960FF;stroke-width:105.83;stroke-linecap:round;stroke-linejoin:round;stroke-miterlimit:10}
    .fil1 {fill:none;fill-rule:nonzero}
    .fil0 {fill:#8960FF;fill-rule:nonzero}
   ]]>
  </style>
 </defs>
 <g id="Camada_x0020_1">
  <metadata id="CorelCorpID_0Corel-Layer"/>
  <g id="_2199674447200">
   <path class="fil0" d="M4294.92 2156.18c-274.9,0 -549.8,0 -826.54,0 -179.6,0 -366.54,0 -535.15,71.47 -194.26,82.48 -351.87,259.02 -381.19,474.06 -22,157.92 69.64,257.19 177.77,262.69 62.31,3.66 150.28,-32.99 196.09,-104.77 9.17,-11 7.33,-16.5 -1.83,-27.49 -36.65,-33.3 -51.31,-80.95 -51.31,-130.43 -1.84,-261.16 245.58,-417.24 485.66,-417.24l293.23 0c-232.75,148.75 -474.67,405.94 -718.42,681.76 -278.56,313.69 -734.9,762.09 -1145.43,881.52 -146.61,43.99 -322.55,62.31 -432.51,-3.66 -9.17,-5.5 -20.16,-5.5 -23.83,5.49 -53.14,126.46 -27.49,362.88 234.59,362.88 498.49,0 1017.14,-605.4 1339.69,-984.16 40.32,-47.65 71.48,-51.31 133.79,-51.31l265.74 0c27.49,0 53.15,-5.5 75.14,-12.83l-491.16 817.38 306.06 0 1099.61 -1825.36 0 0zm-1200.41 855.87c282.24,-323.47 558.97,-620.98 800.89,-703.76l-366.54 610.29c-42.15,67.81 -65.98,82.47 -148.45,82.47l-212.59 0c-25.66,0 -51.32,3.66 -73.31,11l0 0z"/>
   <path id="_1" class="fil0" d="M4238.11 2909.41l0 0 29.33 -47.65 -307.9 0 -815.54 1350.7 307.89 0 324.39 -538.81c34.82,62.31 98.96,104.46 192.43,104.46 148.45,0 276.73,-102.63 368.37,-212.59 91.63,-106.3 177.77,-249.25 210.76,-373.87 38.48,-141.12 34.82,-329.89 -148.45,-329.89 -54.98,0 -108.13,18.33 -161.28,47.65zm76.98 179.61l0 0c-22,115.46 -141.12,302.39 -232.76,386.7 -42.15,38.48 -93.46,71.47 -139.28,71.47 -49.48,0 -60.48,-47.65 14.66,-172.27 49.48,-84.31 225.42,-364.71 324.39,-364.71 27.49,0 42.15,23.83 32.99,78.81z"/>
   <path id="_2" class="fil0" d="M5354.22 3406.07l0 0 328.05 -544.31 -307.89 0 -64.15 108.13c-36.65,-62.31 -102.63,-108.13 -199.76,-108.13 -111.79,0 -218.09,64.15 -302.39,150.29 -109.97,109.96 -227.26,287.73 -265.74,436.18 -40.32,141.11 -16.5,329.88 164.94,329.88 102.63,0 205.26,-67.81 296.89,-153.95 9.17,84.31 56.82,153.95 163.11,153.95 223.59,0 399.53,-203.43 478.34,-368.37 32.98,-64.14 5.49,-142.95 -51.32,-157.61 -45.82,78.8 -170.44,295.06 -258.41,295.06 -32.99,0 -36.65,-49.48 18.33,-141.12zm-172.27 -225.42l0 0c-31.16,51.32 -62.32,104.47 -97.14,152.12 -42.15,65.97 -152.11,214.42 -230.92,214.42 -27.49,0 -42.15,-23.82 -27.49,-82.47 25.66,-89.8 113.63,-245.58 197.93,-350.04 144.79,-170.44 263.91,-109.97 157.62,65.97z"/>
   <path id="_3" class="fil0" d="M6107.45 2909.41l0 0 29.33 -47.65 -307.9 0c-304.22,502.16 -293.23,485.67 -553.47,916.35l307.89 0 221.76 -368.37c62.31,-102.63 130.12,-210.76 207.09,-300.56 95.3,-109.96 238.25,-120.96 163.11,27.49 -20.16,36.65 -43.98,80.64 -62.31,126.45 -58.64,142.95 -32.99,315.23 153.95,322.56 119.12,5.5 251.08,-71.48 317.05,-164.94 40.32,-56.82 23.83,-148.45 -43.98,-168.61 -122.79,201.59 -247.42,205.26 -117.29,-14.66 98.96,-168.61 75.14,-375.71 -153.95,-375.71 -54.98,0 -108.13,18.33 -161.28,47.65z"/>
   <path id="_4" class="fil0" d="M7394 3439.06l0 0c51.32,-60.48 71.48,-157.61 -20.16,-186.93 -130.12,199.76 -307.89,350.04 -491.16,351.87 -133.78,1.84 -163.11,-76.97 -130.12,-192.43 157.61,9.17 353.71,-47.65 472.84,-164.94 144.78,-142.95 133.78,-384.87 -108.13,-384.87 -247.42,0 -443.51,157.62 -557.14,351.88 -150.28,262.08 -115.46,564.47 230.92,564.47 251.08,0 439.84,-150.28 602.95,-339.05l0 0zm-379.36 -397.69l0 0c152.11,-113.63 245.58,-43.99 109.96,100.8 -82.47,89.8 -190.6,124.62 -313.39,137.45 51.31,-91.64 128.29,-181.44 203.43,-238.25z"/>
   <path id="_5" class="fil0" d="M8226.04 3439.06l0 0c51.32,-60.48 71.48,-157.61 -18.33,-186.93 -131.95,199.76 -307.89,350.04 -492.99,351.87 -185.1,1.84 -155.78,-152.11 -100.8,-269.4 45.82,-97.13 122.79,-196.1 196.1,-262.08 166.78,-150.28 302.39,-97.13 137.45,86.14 -21.99,23.83 -49.48,49.48 -84.3,67.81 75.14,64.14 183.27,54.98 243.75,-40.32 87.97,-142.95 53.14,-324.39 -157.62,-324.39 -245.58,0 -443.51,157.62 -555.3,351.88 -152.11,262.08 -117.29,564.47 229.09,564.47 252.91,0 439.84,-150.28 602.95,-339.05z"/>
   <path id="_6" class="fil0" d="M8442.29 2861.76l0 0c0,0 -197.93,328.06 -289.56,482 -36.65,60.48 -71.48,144.78 -78.81,223.59 -9.16,111.79 36.66,210.76 159.45,210.76 225.42,0 401.36,-203.43 482,-368.37 31.15,-65.98 3.66,-142.95 -53.15,-157.61 -45.82,76.97 -170.44,295.06 -258.41,295.06 -32.99,0 -36.66,-49.48 18.32,-141.12l328.06 -544.31 -307.9 0zm328.06 -432.51l0 0c-82.48,0 -175.94,78.81 -210.76,175.94 -34.82,95.3 3.66,174.1 84.3,174.1 80.64,0 175.94,-78.8 210.76,-174.1 34.82,-97.13 -3.67,-175.94 -84.3,-175.94z"/>
   <path id="_7" class="fil0" d="M9389.8 3406.07l0 0 590.12 -978.65 -307.89 0 -328.05 544.31c-34.82,-65.98 -100.8,-109.97 -196.1,-109.97 -115.46,0 -218.09,64.15 -306.06,150.29 -108.13,108.12 -223.58,287.73 -265.74,436.18 -38.48,141.11 -16.49,329.88 166.78,329.88 102.63,0 205.26,-67.81 298.73,-155.78 7.33,87.97 54.98,155.78 161.27,155.78 223.59,0 399.53,-203.43 480.17,-368.37 31.15,-64.14 3.66,-144.78 -53.15,-157.61 -45.82,76.97 -170.44,295.06 -256.58,295.06 -34.82,0 -38.48,-49.48 16.5,-141.12zm-172.27 -225.42l0 0c-31.16,51.32 -62.32,102.63 -95.3,152.12 -45.82,65.97 -153.95,214.42 -234.59,214.42 -27.49,0 -40.32,-23.82 -25.66,-82.47 23.83,-89.8 111.8,-245.58 199.77,-350.04 142.95,-170.44 263.9,-111.8 155.78,65.97z"/>
   <path id="_8" class="fil0" d="M10357.46 3406.07l0 0 328.05 -544.31 -307.89 0 -64.15 108.13c-36.65,-62.31 -102.63,-108.13 -199.76,-108.13 -111.79,0 -218.09,64.15 -302.39,150.29 -109.97,109.96 -227.26,287.73 -265.74,436.18 -40.32,141.11 -16.5,329.88 164.94,329.88 102.63,0 205.26,-67.81 296.89,-153.95 9.17,84.31 56.82,153.95 163.11,153.95 223.59,0 399.53,-203.43 478.34,-368.37 32.98,-64.14 5.49,-142.95 -51.32,-157.61 -45.82,78.8 -170.44,295.06 -258.41,295.06 -32.99,0 -36.65,-49.48 18.33,-141.12zm-172.27 -225.42l0 0c-31.16,51.32 -62.32,104.47 -97.14,152.12 -42.15,65.97 -152.11,214.42 -230.92,214.42 -27.49,0 -42.15,-23.82 -27.49,-82.47 25.66,-89.8 113.63,-245.58 197.93,-350.04 144.79,-170.44 263.91,-109.97 157.62,65.97z"/>
  </g>
  <g id="_2199674447152">
   <g>
    <path class="fil1 str0" d="M6148.67 853.36c-180.49,-45.25 -371.69,-1.86 -475.76,107.96 -5.45,5.72 -11.41,10.84 -17.83,15.32 -114.74,20.22 -147.35,-8.51 -153.88,-15.4 -109.56,-115.52 -287.92,-160.7 -465.48,-117.85 -190.51,45.95 -336.41,184.15 -390.24,369.69 -47.61,164.03 -56.03,364.7 -23.09,550.57 35.53,200.68 114.34,390.07 221.94,533.32 115.5,153.79 253.29,238.5 387.93,238.5 53.94,0 105.74,-13.17 153.93,-39.12 62.19,-33.55 131.67,-51.26 200.9,-51.26 69.22,0 138.75,17.73 200.91,51.21 48.03,25.99 99.81,39.17 153.92,39.17 134.66,0 272.43,-84.71 387.96,-238.52 107.57,-143.23 186.41,-332.65 221.92,-533.35 31.76,-179.16 25.1,-373.83 -18.25,-534.12 -51.57,-190.63 -191.84,-327.73 -384.88,-376.12z"/>
    <path class="fil1 str0" d="M5581.59 985.9c0,0 -123.74,-599.29 412.52,-650.66"/>
    <path class="fil1 str0" d="M5598.36 615.09c-60.91,96.7 -194.19,105.73 -266.7,18.05"/>
    <polyline class="fil1 str0" points="5331.66,633.14 5126.1,294.78 5507.25,354.36 "/>
    <path class="fil1 str0" d="M5507.25 354.36c106.49,33.71 152.03,164.02 91.11,260.73"/>
   </g>
   <path class="fil1 str0" d="M5931.53 1052.62c0,0 353.25,-126.8 443.83,371.37"/>
   <path class="fil1 str0" d="M4911.02 2058.03c0,0 48.31,138.89 199.27,223.42"/>
  </g>
  <path class="fil0" d="M7143.62 4064.1c37.31,0 70.16,7.17 98.57,21.52 28.41,14.35 50.65,36.16 66.72,65.43 16.07,29.27 24.1,66.28 24.1,111.05l0 262.56 -82.64 0 0 -253.09c0,-44.19 -10.76,-77.48 -32.28,-99.86 -21.53,-22.38 -51.8,-33.58 -90.82,-33.58 -29.27,0 -54.81,5.74 -76.62,17.22 -21.81,11.48 -38.6,28.41 -50.36,50.79 -11.77,22.38 -17.65,50.22 -17.65,83.51l0 235.01 -82.64 0 0 -456.26 79.2 0 0 123.11 -12.92 -32.72c14.93,-29.84 37.88,-53.08 68.87,-69.73 30.99,-16.64 67.15,-24.96 108.47,-24.96z"/>
  <path id="_1_0" class="fil0" d="M7678.22 4529.83c-39.03,0 -73.32,-7.18 -102.87,-21.53 -29.56,-14.34 -52.52,-36.3 -68.87,-65.85 -16.36,-29.56 -24.54,-66.72 -24.54,-111.48l0 -262.57 82.65 0 0 253.1c0,44.76 10.76,78.34 32.28,100.72 21.52,22.38 51.79,33.57 90.82,33.57 28.69,0 53.66,-5.88 74.89,-17.65 21.24,-11.76 37.6,-28.98 49.07,-51.65 11.48,-22.67 17.22,-50.07 17.22,-82.21l0 -235.88 82.64 0 0 456.26 -78.34 0 0 -123.1 12.92 32.71c-14.92,30.42 -37.31,53.95 -67.15,70.59 -29.84,16.64 -63.42,24.97 -100.72,24.97z"/>
  <path id="_2_1" class="fil0" d="M8225.72 4529.83c-45.91,0 -81.49,-12.34 -106.74,-37.02 -25.25,-24.68 -37.88,-59.98 -37.88,-105.89l0 -418.38 82.64 0 0 414.94c0,24.68 6.17,43.62 18.51,56.82 12.34,13.2 29.99,19.8 52.94,19.8 25.83,0 47.35,-7.18 64.57,-21.53l25.82 59.4c-12.62,10.91 -27.69,18.94 -45.19,24.11 -17.5,5.16 -35.73,7.75 -54.67,7.75zm-222.1 -393.42l0 -68.01 290.97 0 0 68.01 -290.97 0z"/>
  <path id="_3_2" class="fil0" d="M8425.45 4524.66l0 -456.26 79.2 0 0 123.97 -7.75 -30.99c12.63,-31.57 33.86,-55.67 63.7,-72.32 29.85,-16.64 66.58,-24.96 110.19,-24.96l0 80.06c-3.44,-0.57 -6.74,-0.86 -9.9,-0.86 -3.15,0 -6.17,0 -9.04,0 -44.19,0 -79.19,13.2 -105.02,39.6 -25.83,26.4 -38.74,64.56 -38.74,114.49l0 227.27 -82.64 0z"/>
  <path id="_4_3" class="fil0" d="M8773.24 4524.66l-0.86 -456.26 82.64 0.87 0 455.39 -81.78 0zm40.46 -544.06c-16.07,0 -29.41,-5.17 -40.03,-15.5 -10.62,-10.33 -15.93,-22.96 -15.93,-37.88 0,-15.49 5.31,-28.41 15.93,-38.74 10.62,-10.33 23.96,-15.49 40.03,-15.49 16.07,0 29.41,5.02 40.03,15.06 10.62,10.05 15.93,22.53 15.93,37.45 0,15.5 -5.17,28.55 -15.5,39.17 -10.33,10.62 -23.82,15.93 -40.46,15.93z"/>
  <path id="_5_4" class="fil0" d="M9211.42 4529.83c-46.49,0 -87.95,-10.05 -124.4,-30.13 -36.44,-20.09 -64.99,-47.64 -85.65,-82.65 -20.66,-35.01 -30.99,-75.18 -30.99,-120.52 0,-45.34 10.33,-85.51 30.99,-120.52 20.66,-35.01 49.21,-62.41 85.65,-82.21 36.45,-19.8 77.91,-29.7 124.4,-29.7 41.32,0 78.19,8.18 110.62,24.53 32.42,16.36 57.53,40.61 75.32,72.75l-62.84 40.46c-14.92,-22.38 -33.14,-38.88 -54.66,-49.5 -21.53,-10.62 -44.63,-15.93 -69.3,-15.93 -29.85,0 -56.53,6.6 -80.06,19.8 -23.53,13.2 -42.19,31.71 -55.96,55.53 -13.77,23.81 -20.66,52.08 -20.66,84.79 0,32.71 6.89,61.12 20.66,85.23 13.77,24.1 32.43,42.75 55.96,55.95 23.53,13.2 50.21,19.8 80.06,19.8 24.67,0 47.77,-5.31 69.3,-15.92 21.52,-10.62 39.74,-27.12 54.66,-49.5l62.84 39.6c-17.79,31.56 -42.9,55.81 -75.32,72.74 -32.43,16.93 -69.3,25.4 -110.62,25.4zm-40.46 187.66c-14.93,0 -28.7,-1.58 -41.32,-4.73 -12.63,-3.16 -24.4,-7.89 -35.3,-14.21l18.08 -42.18c9.18,5.17 18.51,8.9 27.98,11.19 9.47,2.3 19.65,3.45 30.56,3.45 16.64,0 28.84,-3.02 36.58,-9.04 7.75,-6.03 11.62,-14.49 11.62,-25.4 0,-10.33 -3.87,-18.51 -11.62,-24.53 -7.74,-6.03 -20.23,-9.04 -37.44,-9.04l-23.25 0 21.52 -84.37 47.35 0 -12.91 49.07c24.68,2.3 43.33,10.05 55.95,23.25 12.63,13.2 18.94,29.27 18.94,48.2 0,24.11 -9.75,43.19 -29.27,57.25 -19.51,14.06 -45.33,21.09 -77.47,21.09z"/>
  <path id="_6_5" class="fil0" d="M9787.33 4524.66l0 -96.42 -4.3 -18.07 0 -164.43c0,-35.01 -10.19,-62.12 -30.56,-81.35 -20.38,-19.23 -50.94,-28.84 -91.69,-28.84 -26.97,0 -53.37,4.45 -79.19,13.34 -25.83,8.9 -47.64,20.81 -65.43,35.73l-34.43 -61.98c23.53,-18.94 51.79,-33.43 84.79,-43.48 33,-10.04 67.58,-15.06 103.73,-15.06 62.56,0 110.77,15.21 144.63,45.63 33.86,30.41 50.79,76.9 50.79,139.45l0 275.48 -78.34 0zm-149.79 5.17c-33.86,0 -63.56,-5.74 -89.1,-17.22 -25.54,-11.48 -45.19,-27.41 -58.97,-47.78 -13.77,-20.37 -20.66,-43.47 -20.66,-69.3 0,-24.68 5.89,-47.06 17.65,-67.15 11.77,-20.08 30.99,-36.15 57.68,-48.2 26.68,-12.06 62.7,-18.08 108.04,-18.08l144.62 0 0 59.4 -141.18 0c-41.32,0 -69.16,6.88 -83.5,20.66 -14.35,13.77 -21.53,30.41 -21.53,49.93 0,22.38 8.9,40.31 26.69,53.8 17.79,13.49 42.47,20.23 74.04,20.23 30.99,0 58.1,-6.89 81.35,-20.66 23.24,-13.77 40.03,-33.86 50.36,-60.26l16.35 56.82c-10.9,26.97 -30.13,48.35 -57.67,64.13 -27.55,15.78 -62.27,23.68 -104.17,23.68zm99 -530.29c-13.77,0 -25.97,-2.87 -36.59,-8.61 -10.61,-5.74 -20.23,-12.49 -28.83,-20.23 -8.61,-7.75 -16.94,-14.49 -24.97,-20.23 -8.03,-5.74 -16.07,-8.61 -24.1,-8.61 -12.63,0 -22.82,4.73 -30.56,14.2 -7.75,9.47 -12.2,22.53 -13.35,39.17l-46.48 0c1.14,-32.14 9.18,-57.68 24.1,-76.62 14.92,-18.93 35.01,-28.4 60.26,-28.4 13.77,0 26.11,3.01 37.02,9.04 10.9,6.02 20.66,12.91 29.27,20.66 8.6,7.74 16.78,14.49 24.53,20.23 7.75,5.74 15.64,8.6 23.67,8.6 12.63,0 22.96,-4.59 31,-13.77 8.03,-9.18 12.33,-21.81 12.91,-37.88l46.48 0c-0.57,30.42 -8.46,55.1 -23.67,74.04 -15.21,18.94 -35.44,28.41 -60.69,28.41z"/>
  <path id="_7_6" class="fil0" d="M10214.31 4529.83c-45.91,-0.58 -86.66,-10.77 -122.24,-30.57 -35.58,-19.8 -63.56,-47.2 -83.93,-82.21 -20.38,-35.01 -30.56,-75.18 -30.56,-120.52 -0.58,-45.34 9.61,-85.37 30.56,-120.09 20.95,-34.72 49.07,-62.12 84.36,-82.21 35.3,-20.09 75.61,-30.13 120.95,-30.13 45.92,0 86.81,10.04 122.68,30.13 35.86,20.09 63.99,47.49 84.36,82.21 20.37,34.72 30.56,74.75 30.56,120.09 0,45.34 -10.19,85.51 -30.56,120.52 -20.37,35.01 -48.64,62.41 -84.8,82.21 -36.15,19.8 -76.61,29.99 -121.38,30.57zm0 -72.32c29.27,0 55.53,-6.6 78.77,-19.8 23.25,-13.2 41.47,-31.99 54.67,-56.38 13.2,-24.39 20.08,-52.66 20.66,-84.8 -0.58,-32.71 -7.46,-60.98 -20.66,-84.79 -13.2,-23.82 -31.42,-42.33 -54.67,-55.53 -23.24,-13.2 -49.5,-20.08 -78.77,-20.66 -29.27,0.58 -55.38,7.46 -78.33,20.66 -22.96,13.2 -41.33,31.71 -55.1,55.53 -13.77,23.81 -20.66,52.08 -20.66,84.79 0,32.14 6.89,60.41 20.66,84.8 13.77,24.39 32,43.18 54.66,56.38 22.67,13.2 48.93,19.8 78.77,19.8z"/>
  <path id="_8_7" class="fil1 str1" d="M7143.62 4064.1c37.31,0 70.16,7.17 98.57,21.52 28.41,14.35 50.65,36.16 66.72,65.43 16.07,29.27 24.1,66.28 24.1,111.05l0 262.56 -82.64 0 0 -253.09c0,-44.19 -10.76,-77.48 -32.28,-99.86 -21.53,-22.38 -51.8,-33.58 -90.82,-33.58 -29.27,0 -54.81,5.74 -76.62,17.22 -21.81,11.48 -38.6,28.41 -50.36,50.79 -11.77,22.38 -17.65,50.22 -17.65,83.51l0 235.01 -82.64 0 0 -456.26 79.2 0 0 123.11 -12.92 -32.72c14.93,-29.84 37.88,-53.08 68.87,-69.73 30.99,-16.64 67.15,-24.96 108.47,-24.96z"/>
  <path id="_9" class="fil1 str1" d="M7678.22 4529.83c-39.03,0 -73.32,-7.18 -102.87,-21.53 -29.56,-14.34 -52.52,-36.3 -68.87,-65.85 -16.36,-29.56 -24.54,-66.72 -24.54,-111.48l0 -262.57 82.65 0 0 253.1c0,44.76 10.76,78.34 32.28,100.72 21.52,22.38 51.79,33.57 90.82,33.57 28.69,0 53.66,-5.88 74.89,-17.65 21.24,-11.76 37.6,-28.98 49.07,-51.65 11.48,-22.67 17.22,-50.07 17.22,-82.21l0 -235.88 82.64 0 0 456.26 -78.34 0 0 -123.1 12.92 32.71c-14.92,30.42 -37.31,53.95 -67.15,70.59 -29.84,16.64 -63.42,24.97 -100.72,24.97z"/>
  <path id="_10" class="fil1 str1" d="M8225.72 4529.83c-45.91,0 -81.49,-12.34 -106.74,-37.02 -25.25,-24.68 -37.88,-59.98 -37.88,-105.89l0 -418.38 82.64 0 0 414.94c0,24.68 6.17,43.62 18.51,56.82 12.34,13.2 29.99,19.8 52.94,19.8 25.83,0 47.35,-7.18 64.57,-21.53l25.82 59.4c-12.62,10.91 -27.69,18.94 -45.19,24.11 -17.5,5.16 -35.73,7.75 -54.67,7.75zm-222.1 -393.42l0 -68.01 290.97 0 0 68.01 -290.97 0z"/>
  <path id="_11" class="fil1 str1" d="M8425.45 4524.66l0 -456.26 79.2 0 0 123.97 -7.75 -30.99c12.63,-31.57 33.86,-55.67 63.7,-72.32 29.85,-16.64 66.58,-24.96 110.19,-24.96l0 80.06c-3.44,-0.57 -6.74,-0.86 -9.9,-0.86 -3.15,0 -6.17,0 -9.04,0 -44.19,0 -79.19,13.2 -105.02,39.6 -25.83,26.4 -38.74,64.56 -38.74,114.49l0 227.27 -82.64 0z"/>
  <path id="_12" class="fil1 str1" d="M8773.24 4524.66l-0.86 -456.26 82.64 0.87 0 455.39 -81.78 0zm40.46 -544.06c-16.07,0 -29.41,-5.17 -40.03,-15.5 -10.62,-10.33 -15.93,-22.96 -15.93,-37.88 0,-15.49 5.31,-28.41 15.93,-38.74 10.62,-10.33 23.96,-15.49 40.03,-15.49 16.07,0 29.41,5.02 40.03,15.06 10.62,10.05 15.93,22.53 15.93,37.45 0,15.5 -5.17,28.55 -15.5,39.17 -10.33,10.62 -23.82,15.93 -40.46,15.93z"/>
  <path id="_13" class="fil1 str1" d="M9211.42 4529.83c-46.49,0 -87.95,-10.05 -124.4,-30.13 -36.44,-20.09 -64.99,-47.64 -85.65,-82.65 -20.66,-35.01 -30.99,-75.18 -30.99,-120.52 0,-45.34 10.33,-85.51 30.99,-120.52 20.66,-35.01 49.21,-62.41 85.65,-82.21 36.45,-19.8 77.91,-29.7 124.4,-29.7 41.32,0 78.19,8.18 110.62,24.53 32.42,16.36 57.53,40.61 75.32,72.75l-62.84 40.46c-14.92,-22.38 -33.14,-38.88 -54.66,-49.5 -21.53,-10.62 -44.63,-15.93 -69.3,-15.93 -29.85,0 -56.53,6.6 -80.06,19.8 -23.53,13.2 -42.19,31.71 -55.96,55.53 -13.77,23.81 -20.66,52.08 -20.66,84.79 0,32.71 6.89,61.12 20.66,85.23 13.77,24.1 32.43,42.75 55.96,55.95 23.53,13.2 50.21,19.8 80.06,19.8 24.67,0 47.77,-5.31 69.3,-15.92 21.52,-10.62 39.74,-27.12 54.66,-49.5l62.84 39.6c-17.79,31.56 -42.9,55.81 -75.32,72.74 -32.43,16.93 -69.3,25.4 -110.62,25.4zm-40.46 187.66c-14.93,0 -28.7,-1.58 -41.32,-4.73 -12.63,-3.16 -24.4,-7.89 -35.3,-14.21l18.08 -42.18c9.18,5.17 18.51,8.9 27.98,11.19 9.47,2.3 19.65,3.45 30.56,3.45 16.64,0 28.84,-3.02 36.58,-9.04 7.75,-6.03 11.62,-14.49 11.62,-25.4 0,-10.33 -3.87,-18.51 -11.62,-24.53 -7.74,-6.03 -20.23,-9.04 -37.44,-9.04l-23.25 0 21.52 -84.37 47.35 0 -12.91 49.07c24.68,2.3 43.33,10.05 55.95,23.25 12.63,13.2 18.94,29.27 18.94,48.2 0,24.11 -9.75,43.19 -29.27,57.25 -19.51,14.06 -45.33,21.09 -77.47,21.09z"/>
  <path id="_14" class="fil1 str1" d="M9787.33 4524.66l0 -96.42 -4.3 -18.07 0 -164.43c0,-35.01 -10.19,-62.12 -30.56,-81.35 -20.38,-19.23 -50.94,-28.84 -91.69,-28.84 -26.97,0 -53.37,4.45 -79.19,13.34 -25.83,8.9 -47.64,20.81 -65.43,35.73l-34.43 -61.98c23.53,-18.94 51.79,-33.43 84.79,-43.48 33,-10.04 67.58,-15.06 103.73,-15.06 62.56,0 110.77,15.21 144.63,45.63 33.86,30.41 50.79,76.9 50.79,139.45l0 275.48 -78.34 0zm-149.79 5.17c-33.86,0 -63.56,-5.74 -89.1,-17.22 -25.54,-11.48 -45.19,-27.41 -58.97,-47.78 -13.77,-20.37 -20.66,-43.47 -20.66,-69.3 0,-24.68 5.89,-47.06 17.65,-67.15 11.77,-20.08 30.99,-36.15 57.68,-48.2 26.68,-12.06 62.7,-18.08 108.04,-18.08l144.62 0 0 59.4 -141.18 0c-41.32,0 -69.16,6.88 -83.5,20.66 -14.35,13.77 -21.53,30.41 -21.53,49.93 0,22.38 8.9,40.31 26.69,53.8 17.79,13.49 42.47,20.23 74.04,20.23 30.99,0 58.1,-6.89 81.35,-20.66 23.24,-13.77 40.03,-33.86 50.36,-60.26l16.35 56.82c-10.9,26.97 -30.13,48.35 -57.67,64.13 -27.55,15.78 -62.27,23.68 -104.17,23.68zm99 -530.29c-13.77,0 -25.97,-2.87 -36.59,-8.61 -10.61,-5.74 -20.23,-12.49 -28.83,-20.23 -8.61,-7.75 -16.94,-14.49 -24.97,-20.23 -8.03,-5.74 -16.07,-8.61 -24.1,-8.61 -12.63,0 -22.82,4.73 -30.56,14.2 -7.75,9.47 -12.2,22.53 -13.35,39.17l-46.48 0c1.14,-32.14 9.18,-57.68 24.1,-76.62 14.92,-18.93 35.01,-28.4 60.26,-28.4 13.77,0 26.11,3.01 37.02,9.04 10.9,6.02 20.66,12.91 29.27,20.66 8.6,7.74 16.78,14.49 24.53,20.23 7.75,5.74 15.64,8.6 23.67,8.6 12.63,0 22.96,-4.59 31,-13.77 8.03,-9.18 12.33,-21.81 12.91,-37.88l46.48 0c-0.57,30.42 -8.46,55.1 -23.67,74.04 -15.21,18.94 -35.44,28.41 -60.69,28.41z"/>
  <path id="_15" class="fil1 str1" d="M10214.31 4529.83c-45.91,-0.58 -86.66,-10.77 -122.24,-30.57 -35.58,-19.8 -63.56,-47.2 -83.93,-82.21 -20.38,-35.01 -30.56,-75.18 -30.56,-120.52 -0.58,-45.34 9.61,-85.37 30.56,-120.09 20.95,-34.72 49.07,-62.12 84.36,-82.21 35.3,-20.09 75.61,-30.13 120.95,-30.13 45.92,0 86.81,10.04 122.68,30.13 35.86,20.09 63.99,47.49 84.36,82.21 20.37,34.72 30.56,74.75 30.56,120.09 0,45.34 -10.19,85.51 -30.56,120.52 -20.37,35.01 -48.64,62.41 -84.8,82.21 -36.15,19.8 -76.61,29.99 -121.38,30.57zm0 -72.32c29.27,0 55.53,-6.6 78.77,-19.8 23.25,-13.2 41.47,-31.99 54.67,-56.38 13.2,-24.39 20.08,-52.66 20.66,-84.8 -0.58,-32.71 -7.46,-60.98 -20.66,-84.79 -13.2,-23.82 -31.42,-42.33 -54.67,-55.53 -23.24,-13.2 -49.5,-20.08 -78.77,-20.66 -29.27,0.58 -55.38,7.46 -78.33,20.66 -22.96,13.2 -41.33,31.71 -55.1,55.53 -13.77,23.81 -20.66,52.08 -20.66,84.79 0,32.14 6.89,60.41 20.66,84.8 13.77,24.39 32,43.18 54.66,56.38 22.67,13.2 48.93,19.8 78.77,19.8z"/>
 </g>
</svg>
